<?xml version="1.0" encoding="UTF-8"?>
<svg id="Layer_2" data-name="Layer 2" xmlns="http://www.w3.org/2000/svg" xmlns:xlink="http://www.w3.org/1999/xlink" viewBox="0 0 107.59 189.81">
  <defs>
    <style>
      .cls-1 {
        fill: url(#linear-gradient);
      }
    </style>
    <linearGradient id="linear-gradient" x1="112.41" y1="94.91" x2="-.38" y2="94.91" gradientUnits="userSpaceOnUse">
      <stop offset="0" stop-color="#2faf81" stop-opacity="0"/>
      <stop offset=".22" stop-color="#2faf81"/>
    </linearGradient>
  </defs>
  <g id="Layer_1-2" data-name="Layer 1">
    <path class="cls-1" d="m0,9.21c.52-2.45,1.17-4.01,1.85-5.29.69-1.35,1.44-2.24,2.16-2.87C4.74.45,5.48.12,6.2.02c.73-.08,1.42.07,2.11.13,2.79.28,5.5.73,8.18,1.26,5.36,1.05,10.5,2.63,15.53,4.47,10.05,3.72,19.42,9,27.95,15.37,8.49,6.42,16.07,14.02,22.32,22.55,3.13,4.26,5.98,8.69,8.52,13.28l1.83,3.48c.61,1.16,1.22,2.31,1.72,3.52,1.03,2.39,2.16,4.75,3.1,7.17l2.68,7.3,2.16,7.43c.39,1.23.64,2.49.92,3.74l.84,3.75c.26,1.25.59,2.49.8,3.75l.59,3.78c.9,5.02,1.26,10.08,1.75,15.11.14,2.52.18,5.04.28,7.55l.12,3.77-.07,3.76-.21,7.5-.59,7.46c-.21,2.48-.4,4.96-.77,7.42l-1.02,7.37c-.3,2.46-.82,4.88-1.28,7.31l-1.43,7.26c-.54,2.41-1.18,4.79-1.77,7.18-.59,2.39-1.21,4.77-1.84,7.14l-1.18-.2c.17-4.91.55-9.77.74-14.64l.16-7.29c.04-2.43.2-4.84.1-7.27-.13-4.84.02-9.66-.37-14.46l-.37-7.18-.72-7.13-.33-3.56-.52-3.53c-.36-2.35-.66-4.7-1.06-7.03-.94-4.63-1.72-9.28-3.01-13.78-2.33-9.05-5.33-17.87-9.32-26.1-7.96-16.44-19.38-30.9-34.03-41.04l-2.73-1.91c-.92-.61-1.88-1.17-2.82-1.77-1.86-1.22-3.84-2.22-5.77-3.3-3.95-2.01-7.99-3.84-12.14-5.31-4.14-1.48-8.37-2.76-12.61-3.55-2.11-.4-4.23-.73-6.29-.93l-.78-.09c-.26-.02-.51-.01-.75-.1-.5-.16-.98-.57-1.47-1.24-.5-.73-.97-1.58-1.5-2.93-.53-1.27-1.11-2.83-1.81-5.27l-.04-1Z"/>
  </g>
</svg>