<?xml version="1.0" encoding="UTF-8"?>
<svg id="Layer_2" data-name="Layer 2" xmlns="http://www.w3.org/2000/svg" xmlns:xlink="http://www.w3.org/1999/xlink" viewBox="0 0 75.35 216.59">
  <defs>
    <style>
      .cls-1 {
        fill: url(#linear-gradient);
      }
    </style>
    <linearGradient id="linear-gradient" x1="82.62" y1="108.29" x2="0" y2="108.29" gradientUnits="userSpaceOnUse">
      <stop offset="0" stop-color="#2faf81" stop-opacity="0"/>
      <stop offset=".41" stop-color="#2faf81"/>
    </linearGradient>
  </defs>
  <g id="Layer_1-2" data-name="Layer 1">
    <path class="cls-1" d="m0,0c1.83.06,3.75.08,5.43.42.85.15,1.75.27,2.56.48l2.41.67c.82.21,1.57.5,2.31.79l2.23.88c1.41.66,2.79,1.35,4.13,2.07,5.25,3,9.7,6.63,13.58,10.56,7.76,7.87,13.65,16.73,18.43,25.89,4.78,9.18,8.49,18.69,11.5,28.3,3.01,9.62,5.31,19.36,7.16,29.13,1.82,9.78,3.05,19.6,3.98,29.42l.56,7.37.27,3.68.18,3.68.35,7.36.16,7.36c.23,9.81.03,19.6-.29,29.36-.2,4.88-.5,9.76-.74,14.63l-.54,7.3-.28,3.65-.14,1.82c-.03.61-.26,1.21-1.36,1.77l-1-.05c-1.05-.65-1.24-1.27-1.23-1.87v-1.82s-.04-3.64-.04-3.64l-.06-7.27c-.16-4.84-.26-9.68-.47-14.51-.48-9.66-1.08-19.3-2.1-28.88l-.75-7.18-.94-7.15-.47-3.57-.56-3.56-1.13-7.1-1.33-7.06c-.23-1.17-.43-2.35-.68-3.52l-.77-3.5c-.52-2.33-.97-4.67-1.55-6.98l-1.73-6.92c-2.46-9.17-5.33-18.19-8.79-26.9-3.46-8.7-7.51-17.08-12.29-24.82-4.72-7.76-10.3-14.85-16.6-20.41-3.13-2.79-6.5-5.08-9.82-6.67-3.29-1.63-6.59-2.25-8.79-2.08L0,0Z"/>
  </g>
</svg>