<?xml version="1.0" encoding="UTF-8"?>
<svg id="Layer_2" data-name="Layer 2" xmlns="http://www.w3.org/2000/svg" xmlns:xlink="http://www.w3.org/1999/xlink" viewBox="0 0 59.01 131.68">
  <defs>
    <style>
      .cls-1 {
        fill: url(#linear-gradient);
      }
    </style>
    <linearGradient id="linear-gradient" x1="64.12" y1="65.84" x2="0" y2="65.84" gradientUnits="userSpaceOnUse">
      <stop offset="0" stop-color="#2faf81" stop-opacity="0"/>
      <stop offset=".41" stop-color="#2faf81"/>
    </linearGradient>
  </defs>
  <g id="Layer_1-2" data-name="Layer 1">
    <path class="cls-1" d="m4.23,0c1.56.67,3.13,1.31,4.67,2.01l4.47,2.36,4.23,2.72c1.38.94,2.65,2.02,3.97,3.03,1.35.98,2.51,2.17,3.72,3.29,1.19,1.14,2.44,2.22,3.48,3.49l3.23,3.68c1.03,1.26,1.93,2.6,2.9,3.9,7.55,10.52,12.49,22.31,15.92,34.24,1,2.95,1.59,6,2.32,9.01l1.05,4.52c.35,1.5.54,3.04.82,4.55l1.51,9.1,1,9.15.49,4.56.26,4.58.51,9.15c.12,1.52.09,3.05.11,4.57l.04,4.57.08,9.13-2.78.06-.71-9.03-.36-4.51c-.13-1.5-.2-3.01-.43-4.5l-1.14-8.96-.57-4.47-.8-4.43-1.6-8.85-2.09-8.72c-.37-1.44-.65-2.91-1.09-4.33l-1.32-4.26c-.9-2.83-1.66-5.7-2.81-8.42-4.03-11.08-9.44-21.62-16.7-30.34-.93-1.07-1.79-2.2-2.75-3.22l-2.99-2.95c-.95-1.03-2.08-1.85-3.14-2.73-1.08-.86-2.1-1.8-3.27-2.51-4.45-3.21-9.36-5.61-14.47-7.16L4.23,0Z"/>
  </g>
</svg>