<?xml version="1.0" encoding="UTF-8"?>
<svg id="Layer_2" data-name="Layer 2" xmlns="http://www.w3.org/2000/svg" xmlns:xlink="http://www.w3.org/1999/xlink" viewBox="0 0 436.6 795.32">
  <defs>
    <style>
      .cls-1 {
        fill: url(#linear-gradient);
      }
    </style>
    <linearGradient id="linear-gradient" x1="0" y1="397.66" x2="451.85" y2="397.66" gradientUnits="userSpaceOnUse">
      <stop offset="0" stop-color="#2faf81" stop-opacity="0"/>
      <stop offset=".23" stop-color="#2faf81"/>
    </linearGradient>
  </defs>
  <g id="Layer_1-2" data-name="Layer 1">
    <path class="cls-1" d="m0,791.99l.75-8.13.78-7.98,1.66-15.9c1.14-10.58,2.34-21.14,3.6-31.68,2.52-21.09,5.26-42.13,8.2-63.14,5.89-42.01,12.59-83.9,20.22-125.63,7.63-41.73,16.18-83.31,25.96-124.63,9.79-41.32,20.78-82.4,33.61-122.98,12.86-40.56,27.46-80.69,45.34-119.55,8.94-19.42,18.75-38.51,29.74-56.98,11.03-18.44,23.3-36.27,37.47-52.71,7.09-8.2,14.66-16.04,22.82-23.3,8.16-7.25,16.95-13.87,26.35-19.58,9.4-5.69,19.41-10.51,29.95-13.83,10.52-3.34,21.45-5.44,32.44-5.88,10.98-.46,21.95.54,32.58,2.76,10.64,2.21,20.93,5.63,30.78,9.88,19.73,8.54,37.65,20.3,54.35,33.29l-2.42,3.24c-17.12-11.99-35.27-22.58-54.63-29.82-9.66-3.61-19.61-6.34-29.68-7.91-10.07-1.57-20.25-1.97-30.27-1.04-20.07,1.88-39.2,9.4-55.77,20.78-16.68,11.28-31,26-43.54,42.08-12.54,16.12-23.37,33.67-33.04,51.86-9.63,18.23-18.17,37.09-25.87,56.33-15.4,38.48-27.67,78.32-38.23,118.59-10.53,40.3-19.28,81.12-26.84,122.17-7.55,41.06-13.89,82.36-19.33,123.8-5.43,41.43-9.94,83-13.65,124.62-1.85,20.81-3.5,41.63-4.93,62.45-.71,10.41-1.37,20.82-1.96,31.21l-.83,15.57-.37,7.76-.31,7.62-54.93-3.33Z"/>
  </g>
</svg>