<?xml version="1.0" encoding="UTF-8"?>
<svg id="Layer_2" data-name="Layer 2" xmlns="http://www.w3.org/2000/svg" xmlns:xlink="http://www.w3.org/1999/xlink" viewBox="0 0 80.88 78.58">
  <defs>
    <style>
      .cls-1 {
        fill: #fff;
      }

      .cls-2 {
        fill: url(#linear-gradient);
      }
    </style>
    <linearGradient id="linear-gradient" x1="155.42" y1="188.77" x2="155.42" y2="175.38" gradientTransform="translate(-122.3 -109.72) rotate(-2.44)" gradientUnits="userSpaceOnUse">
      <stop offset=".15" stop-color="#fff"/>
      <stop offset="1" stop-color="#006ae9" stop-opacity=".5"/>
    </linearGradient>
  </defs>
  <g id="Layer_1-2" data-name="Layer 1">
    <g>
      <path class="cls-2" d="m76.64,65.92c-7.27,4.03-11.48,1.23-14.49.62.09,2.23.9,3.68,2.05,4.38.39.36-.32.38-.73.4-7.06.36-12.08-5.64-23.82-8.66-3.47,3.46-19.55,10.11-24.88,9.99-1.25-.03-.39-.36-.39-.36,0,0,2.2-.84,1.36-3.04-6.61,2.14-10.85-1.4-10.85-1.4,3.23-2.74,53.56-18.28,71.75-1.94Z"/>
      <path class="cls-1" d="m34.43,1.1C-10.26.39-1.76,33.9,7,47.29c3.6,5.8,4.36,15.07-5.31,15.11.3,7.06,13.12,10.98,22.4,1.65,3.41,10.28,17.37,14.52,17.37,14.52,0,0,9.92-3.03,16.05-16.31,4.63,3.9,18.31,10.39,23.37-1.74-12.05-3.21-7.32-14.58-7.32-14.58,0,0,24.49-54.26-39.13-44.86Z"/>
    </g>
  </g>
</svg>